<svg width="267" height="50" viewBox="0 0 267 50" fill="none" xmlns="http://www.w3.org/2000/svg">
<g clip-path="url(#clip0)">
<path d="M108.307 22.0488L104.685 38.6822H95.2484L98.8707 22.0488C99.1546 20.7414 98.99 20.5004 97.6529 20.5004H94.2463C92.9177 20.5004 92.6395 20.7414 92.3585 22.0155C92.3585 22.0155 92.3585 22.0377 92.3585 22.0488L88.7362 38.6822H79.2914L82.9166 22.0488C83.2005 20.7414 83.0358 20.5004 81.6959 20.5004H78.2893C76.9494 20.5004 76.6797 20.7441 76.3959 22.0488L72.7707 38.6822H63.3345L68.8957 13.149H76.5605L77.7755 15.3428C78.4745 14.6247 79.3205 14.0583 80.2586 13.6803C81.1967 13.3023 82.2058 13.1213 83.2204 13.149H85.1763C88.8668 13.149 91.3564 14.714 92.2478 17.3593C93.8971 14.4176 96.2874 13.149 99.1745 13.149H101.133C106.677 13.149 109.496 16.6419 108.307 22.0488Z" fill="#5965E0"/>
<path d="M137.084 22.0487L135.4 29.7824C134.222 35.1893 129.879 38.6821 124.329 38.6821H117.181C111.639 38.6821 108.82 35.1865 109.999 29.7796L111.682 22.0487C112.857 16.6418 117.201 13.1489 122.753 13.1489H129.913C135.443 13.1489 138.265 16.6418 137.084 22.0487ZM127.639 22.0487C127.923 20.7413 127.758 20.5003 126.421 20.5003H123.015C121.675 20.5003 121.405 20.7441 121.121 22.0487L119.435 29.7796C119.151 31.087 119.318 31.328 120.655 31.328H124.062C125.399 31.328 125.672 31.0842 125.956 29.7796L127.639 22.0487Z" fill="#5965E0"/>
<path d="M238.084 22.0487L236.4 29.7824C235.222 35.1893 230.879 38.6821 225.329 38.6821H218.181C212.639 38.6821 209.82 35.1865 210.999 29.7796L212.682 22.0487C213.857 16.6418 218.201 13.1489 223.753 13.1489H230.913C236.443 13.1489 239.265 16.6418 238.084 22.0487ZM228.639 22.0487C228.923 20.7413 228.758 20.5003 227.421 20.5003H224.015C222.675 20.5003 222.405 20.7441 222.121 22.0487L220.435 29.7796C220.151 31.087 220.318 31.328 221.655 31.328H225.062C226.399 31.328 226.672 31.0842 226.956 29.7796L228.639 22.0487Z" fill="#5965E0"/>
<path d="M195.975 20.0156C195.63 21.467 194.796 22.7639 193.607 23.6996L188.801 27.5775C187.649 28.523 186.199 29.0548 184.694 29.0843H178.039L177.889 29.7685C177.605 31.0759 177.77 31.3169 179.11 31.3169H193.508L191.907 38.671H175.624C170.082 38.671 167.263 35.1754 168.441 29.7685L170.125 22.0376C171.303 16.6307 175.646 13.1378 181.196 13.1378H188.361C193.889 13.1489 196.747 16.459 195.975 20.0156ZM186.09 22.0487C186.374 20.7413 186.21 20.5003 184.87 20.5003H181.463C180.129 20.4975 179.845 20.744 179.561 22.0487L178.993 24.7106H184.614C184.866 24.7004 185.108 24.6102 185.303 24.4537C185.497 24.2972 185.634 24.083 185.693 23.8436L186.09 22.0487Z" fill="#5965E0"/>
<path d="M206.583 34.3471C206.061 36.7431 204.122 38.6849 201.19 38.6849C198.257 38.6849 197.167 36.7459 197.689 34.3471C198.212 31.9484 200.151 30.0122 203.083 30.0122C206.016 30.0122 207.097 31.9484 206.583 34.3471Z" fill="#4CD62B"/>
<path d="M50.9527 20.8737L53.0299 32.6663L5.74813 30.8801L3.67089 19.0876L50.9527 20.8737Z" fill="#5965E0"/>
<path d="M54.0007 38.1772L56.078 49.9697L19.0393 48.6132L16.9616 36.8179L54.0007 38.1772Z" fill="#5965E0"/>
<path d="M47.8742 3.39765L49.9515 15.1902L12.9128 13.8337L10.8351 2.03835L47.8742 3.39765Z" fill="#5965E0"/>
<path d="M172.027 13.1489L154.531 38.6821H144.879L138.498 13.1489H148.834L151.613 29.9153L161.691 13.1628L172.027 13.1489Z" fill="#5965E0"/>
</g>
<path d="M266.359 22.0155C266.64 20.7414 267 19 266.248 17.3593C265.356 14.714 262.867 13.149 259.176 13.149H257.22C256.206 13.1213 255.197 13.3023 254.259 13.6803C253.32 14.0583 252.474 14.6247 251.776 15.3428L250.561 13.149H242.896L237.334 38.6822H246.771L250.396 22.0488C250.68 20.7441 250.949 20.5004 252.289 20.5004H255.696C257.036 20.5004 257.2 20.7414 256.917 22.0488L253.291 38.6822H262.736L266.359 22.0488V22.0155Z" fill="#5965E0"/>
<defs>
<clipPath id="clip0">
<rect width="250" height="50" fill="white"/>
</clipPath>
</defs>
</svg>
