<svg width="271" height="56" viewBox="0 0 271 56" fill="none" xmlns="http://www.w3.org/2000/svg">
<g clip-path="url(#clip0)">
<path d="M182.91 28.71L179.29 45.34H169.85L173.47 28.71C173.75 27.4 173.59 27.16 172.25 27.16H168.84C167.51 27.16 167.23 27.4 166.95 28.68C166.95 28.68 166.95 28.7 166.95 28.71L163.33 45.34H153.89L157.52 28.71C157.8 27.4 157.64 27.16 156.3 27.16H152.89C151.55 27.16 151.28 27.4 151 28.71L147.37 45.34H137.93L143.49 19.81H151.15L152.37 22C153.07 21.28 153.91 20.72 154.85 20.34C155.79 19.96 156.8 19.78 157.81 19.81H159.77C163.46 19.81 165.95 21.38 166.84 24.02C168.49 21.08 170.88 19.81 173.77 19.81H175.73C181.28 19.81 184.1 23.31 182.91 28.71Z" fill="#5965E0"/>
<path d="M211.69 28.71L210 36.45C208.82 41.86 204.48 45.35 198.93 45.35H191.78C186.24 45.35 183.42 41.85 184.6 36.45L186.28 28.72C187.46 23.31 191.8 19.82 197.35 19.82H204.51C210.04 19.81 212.87 23.31 211.69 28.71ZM202.24 28.71C202.52 27.4 202.36 27.16 201.02 27.16H197.61C196.27 27.16 196 27.4 195.72 28.71L194.03 36.44C193.75 37.75 193.91 37.99 195.25 37.99H198.66C200 37.99 200.27 37.75 200.55 36.44L202.24 28.71Z" fill="#5965E0"/>
<path d="M270.58 26.68C270.23 28.13 269.4 29.43 268.21 30.3601L263.4 34.2401C262.25 35.1901 260.8 35.72 259.29 35.75H252.64L252.49 36.43C252.21 37.74 252.37 37.98 253.71 37.98H268.11L266.51 45.3301H250.23C244.69 45.3301 241.87 41.83 243.05 36.43L244.73 28.7001C245.91 23.2901 250.25 19.8 255.8 19.8H262.96C268.49 19.81 271.35 23.12 270.58 26.68ZM260.69 28.71C260.97 27.4 260.81 27.16 259.47 27.16H256.06C254.73 27.16 254.44 27.4 254.16 28.71L253.59 31.3701H259.21C259.46 31.3601 259.7 31.2701 259.9 31.1101C260.09 30.9501 260.23 30.74 260.29 30.5L260.69 28.71Z" fill="#5965E0"/>
<path d="M134.18 41.0101C133.66 43.4101 131.72 45.3501 128.79 45.3501C125.86 45.3501 124.77 43.4101 125.29 41.0101C125.81 38.6101 127.75 36.6801 130.68 36.6801C133.62 36.6801 134.7 38.6101 134.18 41.0101Z" fill="#4CD62B"/>
<path d="M46.26 25.51V37.48L0 27.52V15.55L46.26 25.51Z" fill="#5965E0"/>
<path d="M46.26 43.0801V55.0501L10.02 47.2901V35.3101L46.26 43.0801Z" fill="#5965E0"/>
<path d="M46.26 7.76V19.73L10.02 11.97V0L46.26 7.76Z" fill="#5965E0"/>
<path d="M246.63 19.8101L229.14 45.3401H219.49L213.11 19.8101H223.45L226.23 36.5801L236.31 19.8301L246.63 19.8101Z" fill="#5965E0"/>
<path d="M125.04 27.4401C124.69 28.8901 123.86 30.1901 122.67 31.1201L117.87 35.0001C116.72 35.9501 115.27 36.4801 113.76 36.5101H107.1L106.95 37.1901C106.67 38.5001 106.83 38.7401 108.17 38.7401H122.57L120.97 46.0901H104.69C99.15 46.0901 96.33 42.5901 97.51 37.1901L99.19 29.4601C100.37 24.0501 104.71 20.5601 110.26 20.5601H117.42C122.95 20.5701 125.81 23.8801 125.04 27.4401ZM115.16 29.4701C115.44 28.1601 115.28 27.9201 113.94 27.9201H110.53C109.2 27.9201 108.91 28.1601 108.63 29.4701L108.06 32.1301H113.68C113.93 32.1201 114.17 32.0301 114.37 31.8701C114.56 31.7101 114.7 31.5001 114.76 31.2601L115.16 29.4701Z" fill="#5965E0"/>
<path d="M53.2502 36.43L56.8702 19.8H66.3102L62.6902 36.43C62.4102 37.74 62.5702 37.98 63.9102 37.98H67.3202C68.6502 37.98 68.9302 37.74 69.2102 36.46C69.2102 36.46 69.2102 36.4401 69.2102 36.43L72.8302 19.8H82.2702L78.6402 36.43C78.3602 37.74 78.5202 37.98 79.8602 37.98H83.2702C84.6102 37.98 84.8802 37.74 85.1602 36.43L88.7902 19.8H98.2302L92.6702 45.3301H85.0002L83.7802 43.14C83.0802 43.86 82.2402 44.42 81.3002 44.8C80.3602 45.18 79.3502 45.3601 78.3402 45.3301H76.3802C72.6902 45.3301 70.2002 43.77 69.3102 41.12C67.6602 44.06 65.2702 45.3301 62.3802 45.3301H60.4202C54.8802 45.3301 52.0602 41.84 53.2502 36.43Z" fill="#5965E0"/>
</g>
<defs>
<clipPath id="clip0">
<rect width="270.7" height="55.05" fill="white"/>
</clipPath>
</defs>
</svg>
